<?xml version="1.0"?>
<svg xmlns="http://www.w3.org/2000/svg" xmlns:xlink="http://www.w3.org/1999/xlink" version="1.1" id="Capa_1" x="0px" y="0px" viewBox="0 0 469.333 469.333" style="enable-background:new 0 0 469.333 469.333;" xml:space="preserve" width="512px" height="512px" class=""><g><g>
	<g>
		<path d="M426.667,0h-384C19.135,0,0,19.135,0,42.667v384c0,23.531,19.135,42.667,42.667,42.667h384    c23.531,0,42.667-19.135,42.667-42.667v-384C469.333,19.135,450.198,0,426.667,0z M106.667,405.333    C83.135,405.333,64,386.198,64,362.667S83.135,320,106.667,320s42.667,19.135,42.667,42.667S130.198,405.333,106.667,405.333z     M149.333,160c0,5.885-4.781,10.667-10.667,10.667H128c-5.896,0-10.667,4.771-10.667,10.667v85.333    c0,5.885-4.781,10.667-10.667,10.667S96,272.552,96,266.667v-85.333c0-5.896-4.771-10.667-10.667-10.667H74.667    C68.781,170.667,64,165.885,64,160v-42.667c0-5.885,4.781-10.667,10.667-10.667h10.667C91.229,106.667,96,101.896,96,96V74.667    C96,68.781,100.781,64,106.667,64s10.667,4.781,10.667,10.667V96c0,5.896,4.771,10.667,10.667,10.667h10.667    c5.885,0,10.667,4.781,10.667,10.667V160z M234.667,405.333c-23.531,0-42.667-19.135-42.667-42.667S211.135,320,234.667,320    s42.667,19.135,42.667,42.667S258.198,405.333,234.667,405.333z M277.333,224c0,5.885-4.781,10.667-10.667,10.667H256    c-5.896,0-10.667,4.771-10.667,10.667v21.333c0,5.885-4.781,10.667-10.667,10.667S224,272.552,224,266.667v-21.333    c0-5.896-4.771-10.667-10.667-10.667h-10.667c-5.885,0-10.667-4.781-10.667-10.667v-42.667c0-5.885,4.781-10.667,10.667-10.667    h10.667c5.896,0,10.667-4.771,10.667-10.667V74.667C224,68.781,228.781,64,234.667,64s10.667,4.781,10.667,10.667V160    c0,5.896,4.771,10.667,10.667,10.667h10.667c5.885,0,10.667,4.781,10.667,10.667V224z M362.667,405.333    c-23.531,0-42.667-19.135-42.667-42.667S339.135,320,362.667,320s42.667,19.135,42.667,42.667S386.198,405.333,362.667,405.333z     M405.333,202.667c0,5.885-4.781,10.667-10.667,10.667H384c-5.896,0-10.667,4.771-10.667,10.667v42.667    c0,5.885-4.781,10.667-10.667,10.667c-5.885,0-10.667-4.781-10.667-10.667V224c0-5.896-4.771-10.667-10.667-10.667h-10.667    c-5.885,0-10.667-4.781-10.667-10.667V160c0-5.885,4.781-10.667,10.667-10.667h10.667c5.896,0,10.667-4.771,10.667-10.667v-64    C352,68.781,356.781,64,362.667,64c5.885,0,10.667,4.781,10.667,10.667v64c0,5.896,4.771,10.667,10.667,10.667h10.667    c5.885,0,10.667,4.781,10.667,10.667V202.667z" data-original="#000000" class="active-path" data-old_color="#000000" fill="#FFFFFF"/>
	</g>
</g></g> </svg>
